<svg width="168" height="134" viewBox="0 0 168 134" fill="none" xmlns="http://www.w3.org/2000/svg">
<path d="M17.3334 0.333374L34 33.6667H59L42.3334 0.333374H59L75.6667 33.6667H100.667L84 0.333374H100.667L117.333 33.6667H142.333L125.667 0.333374H150.667C155.25 0.333374 159.174 1.96532 162.438 5.22921C165.701 8.4931 167.333 12.4167 167.333 17V117C167.333 121.583 165.701 125.507 162.438 128.771C159.174 132.035 155.25 133.667 150.667 133.667H17.3334C12.75 133.667 8.82641 132.035 5.56252 128.771C2.29863 125.507 0.666687 121.583 0.666687 117V17C0.666687 12.4167 2.29863 8.4931 5.56252 5.22921C8.82641 1.96532 12.75 0.333374 17.3334 0.333374ZM17.3334 50.3334V117H150.667V50.3334H17.3334Z" fill="#FF9800"/>
</svg>
