<svg width="168" height="134" viewBox="0 0 168 134" fill="none" xmlns="http://www.w3.org/2000/svg">
<path d="M17.3334 133.667C12.75 133.667 8.82641 132.035 5.56252 128.771C2.29863 125.507 0.666687 121.583 0.666687 117V17C0.666687 12.4167 2.29863 8.4931 5.56252 5.22921C8.82641 1.96532 12.75 0.333374 17.3334 0.333374H117.333C121.917 0.333374 125.84 1.96532 129.104 5.22921C132.368 8.4931 134 12.4167 134 17V54.5L167.333 21.1667V112.833L134 79.5V117C134 121.583 132.368 125.507 129.104 128.771C125.84 132.035 121.917 133.667 117.333 133.667H17.3334ZM17.3334 117H117.333V17H17.3334V117Z" fill="#FF9800"/>
</svg>
